<mxfile host="app.diagrams.net" modified="2023-10-11T08:56:47.177Z" agent="5.0 (Macintosh; Intel Mac OS X 10_15_7) AppleWebKit/537.36 (KHTML, like Gecko) Chrome/117.0.0.0 Safari/537.36" etag="d2MjvPGHKbD_WlFGZa1-" version="20.8.20" type="github">
  <diagram name="第 1 页" id="gzkTSLLL8rwbVCDswUHF">
    <mxGraphModel dx="1242" dy="747" grid="1" gridSize="10" guides="1" tooltips="1" connect="1" arrows="1" fold="1" page="1" pageScale="1" pageWidth="827" pageHeight="1169" math="0" shadow="0">
      <root>
        <mxCell id="0" />
        <mxCell id="1" parent="0" />
        <mxCell id="jB7oXGu01omAEkD2qwYA-23" value="" style="rounded=0;whiteSpace=wrap;html=1;strokeWidth=2;fillColor=none;strokeColor=#d6b656;dashed=1;" vertex="1" parent="1">
          <mxGeometry x="580" y="210" width="205" height="380" as="geometry" />
        </mxCell>
        <mxCell id="jB7oXGu01omAEkD2qwYA-22" value="" style="rounded=0;whiteSpace=wrap;html=1;strokeWidth=2;fillColor=none;strokeColor=#6c8ebf;dashed=1;" vertex="1" parent="1">
          <mxGeometry x="135" y="210" width="205" height="380" as="geometry" />
        </mxCell>
        <mxCell id="jB7oXGu01omAEkD2qwYA-15" value="" style="rounded=0;whiteSpace=wrap;html=1;strokeWidth=2;fillColor=none;strokeColor=#d6b656;" vertex="1" parent="1">
          <mxGeometry x="580" y="210" width="130" height="200" as="geometry" />
        </mxCell>
        <mxCell id="jB7oXGu01omAEkD2qwYA-12" value="" style="rounded=0;whiteSpace=wrap;html=1;strokeWidth=2;fillColor=none;strokeColor=#6c8ebf;" vertex="1" parent="1">
          <mxGeometry x="135" y="210" width="130" height="200" as="geometry" />
        </mxCell>
        <mxCell id="jB7oXGu01omAEkD2qwYA-2" value="" style="rounded=0;whiteSpace=wrap;html=1;strokeWidth=2;fillColor=#dae8fc;strokeColor=#6c8ebf;" vertex="1" parent="1">
          <mxGeometry x="170" y="280" width="60" height="60" as="geometry" />
        </mxCell>
        <mxCell id="jB7oXGu01omAEkD2qwYA-3" value="" style="rounded=0;whiteSpace=wrap;html=1;strokeWidth=2;fillColor=#fff2cc;strokeColor=#d6b656;" vertex="1" parent="1">
          <mxGeometry x="620" y="270" width="60" height="60" as="geometry" />
        </mxCell>
        <mxCell id="jB7oXGu01omAEkD2qwYA-7" style="edgeStyle=orthogonalEdgeStyle;rounded=0;orthogonalLoop=1;jettySize=auto;html=1;entryX=1;entryY=0.5;entryDx=0;entryDy=0;curved=1;strokeWidth=2;fillColor=#d5e8d4;strokeColor=#82b366;" edge="1" parent="1" source="jB7oXGu01omAEkD2qwYA-5" target="jB7oXGu01omAEkD2qwYA-2">
          <mxGeometry relative="1" as="geometry" />
        </mxCell>
        <mxCell id="jB7oXGu01omAEkD2qwYA-8" style="edgeStyle=orthogonalEdgeStyle;curved=1;rounded=0;orthogonalLoop=1;jettySize=auto;html=1;entryX=0;entryY=0.5;entryDx=0;entryDy=0;strokeWidth=2;fillColor=#fff2cc;strokeColor=#d6b656;" edge="1" parent="1" source="jB7oXGu01omAEkD2qwYA-5" target="jB7oXGu01omAEkD2qwYA-3">
          <mxGeometry relative="1" as="geometry" />
        </mxCell>
        <mxCell id="jB7oXGu01omAEkD2qwYA-5" value="" style="ellipse;whiteSpace=wrap;html=1;aspect=fixed;strokeWidth=2;fillColor=#d5e8d4;strokeColor=#82b366;" vertex="1" parent="1">
          <mxGeometry x="414" y="230" width="50" height="50" as="geometry" />
        </mxCell>
        <mxCell id="jB7oXGu01omAEkD2qwYA-9" value="Source" style="text;html=1;align=center;verticalAlign=middle;resizable=0;points=[];autosize=1;strokeColor=none;fillColor=none;" vertex="1" parent="1">
          <mxGeometry x="170" y="250" width="60" height="30" as="geometry" />
        </mxCell>
        <mxCell id="jB7oXGu01omAEkD2qwYA-10" value="Target" style="text;html=1;align=center;verticalAlign=middle;resizable=0;points=[];autosize=1;strokeColor=none;fillColor=none;" vertex="1" parent="1">
          <mxGeometry x="620" y="240" width="60" height="30" as="geometry" />
        </mxCell>
        <mxCell id="jB7oXGu01omAEkD2qwYA-11" value="Connect" style="text;html=1;align=center;verticalAlign=middle;resizable=0;points=[];autosize=1;strokeColor=none;fillColor=none;" vertex="1" parent="1">
          <mxGeometry x="404" y="200" width="70" height="30" as="geometry" />
        </mxCell>
        <mxCell id="jB7oXGu01omAEkD2qwYA-25" value="" style="endArrow=classic;html=1;rounded=0;strokeWidth=2;curved=1;fillColor=#dae8fc;strokeColor=#6c8ebf;" edge="1" parent="1">
          <mxGeometry width="50" height="50" relative="1" as="geometry">
            <mxPoint x="350" y="589" as="sourcePoint" />
            <mxPoint x="390" y="589" as="targetPoint" />
          </mxGeometry>
        </mxCell>
        <mxCell id="jB7oXGu01omAEkD2qwYA-27" value="" style="endArrow=classic;html=1;rounded=0;strokeWidth=2;curved=1;fillColor=#dae8fc;strokeColor=#6c8ebf;" edge="1" parent="1">
          <mxGeometry width="50" height="50" relative="1" as="geometry">
            <mxPoint x="340" y="600" as="sourcePoint" />
            <mxPoint x="340" y="640" as="targetPoint" />
          </mxGeometry>
        </mxCell>
        <mxCell id="jB7oXGu01omAEkD2qwYA-28" value="X 轴滚动" style="text;html=1;align=center;verticalAlign=middle;resizable=0;points=[];autosize=1;strokeColor=none;fillColor=none;" vertex="1" parent="1">
          <mxGeometry x="334" y="555" width="70" height="30" as="geometry" />
        </mxCell>
        <mxCell id="jB7oXGu01omAEkD2qwYA-29" value="Y 轴滚动" style="text;html=1;align=center;verticalAlign=middle;resizable=0;points=[];autosize=1;strokeColor=none;fillColor=none;" vertex="1" parent="1">
          <mxGeometry x="334" y="600" width="70" height="30" as="geometry" />
        </mxCell>
        <mxCell id="jB7oXGu01omAEkD2qwYA-30" value="" style="endArrow=classic;html=1;rounded=0;strokeWidth=2;curved=1;fillColor=#fff2cc;strokeColor=#d6b656;" edge="1" parent="1">
          <mxGeometry width="50" height="50" relative="1" as="geometry">
            <mxPoint x="796" y="589" as="sourcePoint" />
            <mxPoint x="836" y="589" as="targetPoint" />
          </mxGeometry>
        </mxCell>
        <mxCell id="jB7oXGu01omAEkD2qwYA-31" value="" style="endArrow=classic;html=1;rounded=0;strokeWidth=2;curved=1;fillColor=#fff2cc;strokeColor=#d6b656;" edge="1" parent="1">
          <mxGeometry width="50" height="50" relative="1" as="geometry">
            <mxPoint x="786" y="600" as="sourcePoint" />
            <mxPoint x="786" y="640" as="targetPoint" />
          </mxGeometry>
        </mxCell>
        <mxCell id="jB7oXGu01omAEkD2qwYA-32" value="X 轴滚动" style="text;html=1;align=center;verticalAlign=middle;resizable=0;points=[];autosize=1;strokeColor=none;fillColor=none;" vertex="1" parent="1">
          <mxGeometry x="780" y="555" width="70" height="30" as="geometry" />
        </mxCell>
        <mxCell id="jB7oXGu01omAEkD2qwYA-33" value="Y 轴滚动" style="text;html=1;align=center;verticalAlign=middle;resizable=0;points=[];autosize=1;strokeColor=none;fillColor=none;" vertex="1" parent="1">
          <mxGeometry x="780" y="600" width="70" height="30" as="geometry" />
        </mxCell>
      </root>
    </mxGraphModel>
  </diagram>
</mxfile>
